<svg xmlns="http://www.w3.org/2000/svg" viewBox="0 0 1920 1355.294">
  <title>MIL19-Portfolio cam_update_04-imgmap</title>
  <g style="isolation:isolate">
    <g id="highlights" style="mix-blend-mode:multiply">
      <polygon
        id="One_Wacker"
        data-name="One Wacker"
        points="729.93 664.377 703.43 676.437 688.99 664.377 681.87 573.387 695.65 567.057 695.65 528.197 477.99 528.197 477.99 470.017 704.24 470.017 704.24 566.917 716.09 576.547 722.22 653.297 729.14 656.457 729.93 664.377"
        style="fill:#56627a"
      />
      <polygon
        id="_135_S_LaSalle"
        data-name="135 S LaSalle"
        points="849.14 976.377 849.14 1014.347 830.29 1024.767 820.92 1016.727 810.64 1022.397 811.3 1035.187 786.9 1048.637 763.36 1027.637 761.48 986.597 763.16 985.507 763.16 982.537 772 978.317 774.06 978.667 777.49 976.817 777.41 974.027 778.99 973.047 778.75 965.757 748.54 965.757 748.54 1015.357 522.3 1015.357 522.3 957.167 778.46 957.167 777.98 942.907 778.45 942.287 778.25 937.387 783.09 934.917 782.9 930.767 811.28 916.617 813.7 918.847 819.04 916.277 826.66 922.947 826.71 924.387 827.65 925.377 828.49 956.027 830.07 956.877 830.22 959.597 832.4 961.377 832.3 968.837 838.97 965.227 846.09 971.507 846.24 973.137 849.14 976.377"
        style="fill:#56627a"
      />
      <polygon
        id="_33_N_Dearborn"
        data-name="33 N Dearborn"
        points="782.55 717.207 782.55 762.277 801.8 778.047 804.57 833.827 791.25 839.887 768.57 821.167 765.93 766.177 773.96 762.197 773.96 659.017 1013.31 659.017 1013.31 717.207 782.55 717.207"
        style="fill:#56627a"
      />
      <polygon
        id="_30_N_LaSalle"
        data-name="30 N LaSalle"
        points="610.066 823.999 594.051 809.275 594.051 710.753 366.681 710.753 366.681 768.111 585.936 768.111 585.936 809.717 559.219 821.974 571.099 919.735 588.505 936.548 620.747 921.911 610.066 823.999"
        style="fill:#56627a;mix-blend-mode:multiply"
      />
      <polygon
        id="_33_W_Monroe"
        data-name="33 W Monroe"
        points="905.94 800.577 905.94 860.837 932.22 847.277 942.6 855.847 944.85 859.307 944.65 862.537 946.59 863.357 946.59 925.867 910.47 944.967 888.97 923.887 888.97 871.277 895.16 866.397 897.35 865.267 897.35 742.387 1123.6 742.387 1123.6 800.577 905.94 800.577"
        style="fill:#56627a"
      />
      <polygon
        id="_233_N_Michigan"
        data-name="233 N Michigan"
        points="1077.03 426.527 1077.03 307.377 863.518 307.377 863.518 426.527 870.92 426.527 870.92 503.197 847.96 511.937 844.13 513.777 845.86 566.397 846.34 578.727 857.62 588.617 897.08 569.997 897.08 506.917 883.73 498.317 879.51 499.927 879.51 426.527 1077.03 426.527"
        style="fill:#56627a"
      />
      <polygon
        id="_111_E_Wacker"
        data-name="111 E Wacker"
        points="863.518 426.527 863.518 307.377 676.32 307.377 676.32 426.527 818.44 426.527 818.44 489.067 801.54 495.977 803.52 550.967 831.05 573.317 845.86 566.397 844.13 513.777 847.96 511.937 847.96 508.767 827.03 494.407 827.03 426.527 863.518 426.527"
        style="fill:#56627a"
      />
    </g>
  </g>
</svg>
