<?xml version="1.0" encoding="utf-8"?>
<!-- Generator: Adobe Illustrator 23.0.3, SVG Export Plug-In . SVG Version: 6.00 Build 0)  -->
<svg version="1.1" xmlns="http://www.w3.org/2000/svg" xmlns:xlink="http://www.w3.org/1999/xlink" x="0px" y="0px"
	 viewBox="0 0 1920 1355.29" style="enable-background:new 0 0 1920 1355.29;" xml:space="preserve">
<style type="text/css">
	.st1{fill:#56627A;}
</style>
<g id="highlights">
  <a href="https://www.eastdilsecured.com/offerings/public/media/mil19/tour/onewacker/" xlink:href="https://www.eastdilsecured.com/offerings/public/media/mil19/tour/onewacker/">
	  <polygon id="One_Wacker_1_" class="st1" points="688.99,664.37 703.43,676.44 729.93,664.37 729.14,656.46 722.22,653.3
		716.09,576.55 701.25,564.48 681.87,573.38 	"/>
  </a>

  <a href="https://www.eastdilsecured.com/offerings/public/media/mil19/tour/111ewacker/" xlink:href="https://www.eastdilsecured.com/offerings/public/media/mil19/tour/111ewacker/">
    <polygon id="_x31_11_E_Wacker" class="st1" points="801.54,495.98 818.95,488.86 847.96,508.77 847.96,511.93 844.13,513.78
      845.86,566.4 831.05,573.32 803.52,550.97 	"/>
  </a>
  <a href="https://www.eastdilsecured.com/offerings/public/media/mil19/tour/233nmichigan/" xlink:href="https://www.eastdilsecured.com/offerings/public/media/mil19/tour/233nmichigan/">
    <polygon id="_x32_33_N_Michigan" class="st1" points="883.73,498.32 847.96,511.93 844.13,513.78 845.86,566.4 846.34,578.72
      857.62,588.61 897.08,570 897.08,506.92 	"/>
  </a>
  <a href="https://www.eastdilsecured.com/offerings/public/media/mil19/tour/30nlasalle/" xlink:href="https://www.eastdilsecured.com/offerings/public/media/mil19/tour/30nlasalle/">
    <polygon id="_x33_0_N_LaSalle" class="st1" points="559.22,821.97 571.1,919.73 588.51,936.55 620.75,921.91 610.07,824
      591.67,807.09 	"/>
  </a>
  <a href="https://www.eastdilsecured.com/offerings/public/media/mil19/tour/135slasalle/" xlink:href="https://www.eastdilsecured.com/offerings/public/media/mil19/tour/135slasalle/">
    <polygon id="_x31_35_S_LaSalle" class="st1" points="778.99,973.04 777.41,974.03 777.49,976.82 774.06,978.67 772,978.32
      763.16,982.54 763.16,985.5 761.48,986.59 763.36,1027.64 786.9,1048.64 811.3,1035.19 810.64,1022.39 820.92,1016.72
      830.29,1024.77 849.14,1014.35 849.14,976.37 846.24,973.14 846.09,971.51 838.97,965.23 832.3,968.84 832.4,961.37 830.22,959.59
      830.07,956.87 828.49,956.03 827.65,925.37 826.71,924.38 826.66,922.95 819.04,916.27 813.7,918.84 811.28,916.62 782.9,930.76
      783.09,934.92 778.25,937.39 778.45,942.28 777.98,942.91 	"/>
  </a>
  <a href="https://www.eastdilsecured.com/offerings/public/media/mil19/tour/33ndearborn/" xlink:href="https://www.eastdilsecured.com/offerings/public/media/mil19/tour/33ndearborn/">
    <polygon id="_x33_3_N_Dearborn" class="st1" points="765.93,766.17 768.57,821.16 791.25,839.89 804.57,833.82 801.8,778.04
      779.25,759.58 	"/>
  </a>
  <a href="https://www.eastdilsecured.com/offerings/public/media/mil19/tour/33wmonroe/" xlink:href="https://www.eastdilsecured.com/offerings/public/media/mil19/tour/33wmonroe/">
    <polygon id="_x33_3_W_Monroe" class="st1" points="932.22,847.27 895.16,866.39 888.97,871.27 888.97,923.89 910.47,944.97
      946.59,925.87 946.59,863.36 944.65,862.54 944.85,859.31 942.6,855.84 	"/>
  </a>
</g>
</svg>
